<svg width="52" height="52" viewBox="0 0 52 52" fill="none" xmlns="http://www.w3.org/2000/svg">
<path fill-rule="evenodd" clip-rule="evenodd" d="M26 52C40.3594 52 52 40.3594 52 26C52 11.6406 40.3594 0 26 0C11.6406 0 0 11.6406 0 26C0 40.3594 11.6406 52 26 52ZM17.4185 16.5732C17.9965 15.9968 18.3214 15.2148 18.3218 14.3992C18.3222 13.5836 17.9981 12.8013 17.4207 12.2243C16.8433 11.6474 16.06 11.323 15.2431 11.3226C14.4262 11.3222 13.6425 11.6458 13.0646 12.2222C12.4866 12.7986 12.1617 13.5806 12.1613 14.3961C12.1609 15.2117 12.485 15.994 13.0624 16.571C13.6398 17.148 14.4231 17.4724 15.24 17.4728C16.0569 17.4732 16.8406 17.1496 17.4185 16.5732ZM12.2537 19.7499H18.4142V39H12.2537V19.7499ZM22.0181 19.7499H28.1478L28.0862 22.333C30.6428 17.6742 41.5161 17.3206 41.5161 26.8072V39H35.4326V28.8983C35.4326 22.7481 28.0862 23.2709 28.0862 28.8983V39H22.0181V19.7499Z" fill="white"/>
</svg>
